<svg role="img" width="300" height="250" viewBox="0 0 300 250" fill="none" xmlns="http://www.w3.org/2000/svg">
<g clip-path="url(#clip0_3_29)">
<rect width="300" height="250"/>
<path d="M29 161L94.5295 132.645C96.4605 131.809 98.6059 131.604 100.66 132.058L163.24 145.899C165.045 146.298 166.925 146.189 168.671 145.584L232.209 123.589C233.715 123.068 235.074 122.195 236.173 121.043L303 51" stroke="#3EB6FD" stroke-width="4"/>
<path d="M29 148.467L94.3341 172.82C96.3877 173.585 98.6358 173.655 100.733 173.018L163.094 154.078C164.989 153.503 167.011 153.503 168.906 154.078L227.963 172.015C231.905 173.212 236.178 171.869 238.726 168.632L303 87" stroke="#00C800" stroke-width="4"/>
<path d="M29 165L96.107 168.707C97.0312 168.758 97.9438 168.937 98.8188 169.239L163.637 191.617C165.188 192.152 166.848 192.298 168.469 192.04L232.392 181.889C233.782 181.668 235.202 181.743 236.561 182.109L303 200" stroke="#CD0365" stroke-width="4"/>
<path d="M29 11V216C29 221.523 33.4772 226 39 226H300" stroke="#808080" stroke-width="4"/>
<rect x="132" y="236" width="66" height="6" rx="3" fill="#BFBFBF"/>
<rect x="11" y="151" width="66" height="6" rx="3" transform="rotate(-90 11 151)" fill="#BFBFBF"/>
</g>
<defs>
<clipPath id="clip0_3_29">
<rect width="300" height="250" fill="white"/>
</clipPath>
</defs>
</svg>
