<svg width="300" height="250" viewBox="0 0 300 250" fill="none" xmlns="http://www.w3.org/2000/svg">
<g clip-path="url(#clip0_3_56)">
<rect width="300" height="250" fill="white"/>
<mask id="mask0_3_56" style="mask-type:alpha" maskUnits="userSpaceOnUse" x="0" y="0" width="300" height="250">
<rect width="300" height="250" rx="10" fill="#D9D9D9"/>
</mask>
<g mask="url(#mask0_3_56)">
<rect width="300" height="250" fill="#D9D9D9"/>
<path d="M-14 19L23.4154 45.3491C49.5178 63.7313 71.8578 86.9429 89.2279 113.729L100.796 131.569L113.095 148.367C122.22 160.83 135.525 169.593 150.578 173.057L163.067 175.931C168.679 177.222 174.559 176.637 179.807 174.267V174.267C192.486 168.54 198.52 153.937 193.582 140.93L192.54 138.187C188.671 127.995 191.35 116.475 199.32 109.037V109.037C207.335 101.557 219.093 99.7025 229.021 104.353L244.838 111.764C248.171 113.325 251.331 115.231 254.266 117.451L265.246 125.755C274.366 132.652 280.982 142.34 284.087 153.344V153.344C286.083 160.42 289.544 166.996 294.246 172.647L296.287 175.1C302.132 182.124 309.343 187.888 317.483 192.042L337 202" stroke="white" stroke-width="22"/>
<path d="M-7 246L49.1458 232.347C64.4141 228.634 78.6531 221.538 90.8109 211.584V211.584C102.891 201.693 112.61 189.23 119.26 175.105L136.125 139.283L146.913 108.887C154.286 88.1132 158.879 66.4551 160.573 44.4766L164 0" stroke="white" stroke-width="22"/>
<path d="M2 26L34.2941 49.9695L68.9804 77.5344L98.8824 115.886L119.216 156.634L161.078 178.206L202.941 156.634L176.627 124.275L212.51 100.305L255.569 118.282L284.275 148.244L307 183" stroke="#7BCDC2" stroke-width="4"/>
<ellipse cx="68.5" cy="77.5" rx="11.5" ry="12.5" fill="#3EB6FD"/>
<ellipse cx="307" cy="182.5" rx="12" ry="12.5" fill="#3EB6FD"/>
<ellipse cx="1" cy="25.5" rx="12" ry="12.5" fill="#3EB6FD"/>
<ellipse cx="98.5" cy="116" rx="11.5" ry="12" fill="#3EB6FD"/>
<ellipse cx="119" cy="156.5" rx="12" ry="11.5" fill="#3EB6FD"/>
<ellipse cx="161" cy="178.5" rx="12" ry="12.5" fill="#3EB6FD"/>
<ellipse cx="33.5" cy="50" rx="11.5" ry="12" fill="#3EB6FD"/>
<ellipse cx="203" cy="156.5" rx="12" ry="11.5" fill="#3EB6FD"/>
<ellipse cx="212" cy="100.5" rx="12" ry="11.5" fill="#3EB6FD"/>
<circle cx="255.5" cy="118.5" r="11.5" fill="#3EB6FD"/>
<ellipse cx="284.5" cy="148" rx="12.5" ry="12" fill="#3EB6FD"/>
<circle cx="176" cy="124" r="12" fill="#3EB6FD"/>
</g>
</g>
<defs>
<clipPath id="clip0_3_56">
<rect width="300" height="250" fill="white"/>
</clipPath>
</defs>
</svg>
